<svg xmlns="http://www.w3.org/2000/svg" viewBox="-16 -16 772 312" width="772" height="312" role="img" aria-labelledby="t d"><title id="t">Matrix of shared passages: a band of 39 to 208 word copies just below the diagonal, 6 to 19 words elsewhere</title><desc id="d">Every chapter after the first reuses long passages of the one to three chapters written just before it: “When Night Came” opens with the first 208 words of “The Morlocks”. The writer carries its own recent text forward. Only the first chapter written is clean.</desc><style>
svg{--paper:#ffffff;--ink:#1b2130;--muted:#586174;--line:#d9dee7;--accent:#2f56c9;--accent-soft:#e3e9fb;--warn:#b4480f;--warn-soft:#fbeadf;--good:#18794a;--good-soft:#e0f2e8;--bar:#a9b2c3;color:var(--ink)}
@media (prefers-color-scheme: dark){svg{--paper:#191d27;--ink:#e5e8ee;--muted:#9ba4b6;--line:#2c3342;--accent:#86a4ff;--accent-soft:#1f2a4a;--warn:#f0925c;--warn-soft:#3a2418;--good:#5fcf93;--good-soft:#15301f;--bar:#4b5468}}
.bg{fill:var(--paper);stroke:var(--line)}
text{font-family:system-ui,-apple-system,"Segoe UI",Roboto,"Helvetica Neue",Arial,sans-serif;fill:currentColor}
.m{fill:var(--muted)}.a{fill:var(--accent)}.w{fill:var(--warn)}.g{fill:var(--good)}
.node{fill:var(--paper);stroke:currentColor;stroke-width:1.2}
.node.hl{fill:var(--accent-soft);stroke:var(--accent);stroke-width:1.6}
.node.bad{fill:var(--warn-soft);stroke:var(--warn);stroke-width:1.6}
.node.code{fill:var(--good-soft);stroke:var(--good);stroke-width:1.4}
.node.dash{stroke-dasharray:5 4}
.edge{stroke:currentColor;stroke-width:1.3;fill:none}
.edge.dash{stroke-dasharray:5 4;opacity:.7}.edge.a{stroke:var(--accent)}.edge.w{stroke:var(--warn)}
.barA{fill:var(--accent)}.barB{fill:var(--bar)}.grid{stroke:var(--line);stroke-width:1}
</style><rect class="bg" x="-15.5" y="-15.5" width="771" height="311" rx="10"/><text x="20" y="16" font-size="11" class="m">longest passage two rewritten chapters share, word for word (words) · any two chapters of the original book: ≤ 12</text><text x="192" y="56" font-size="11" text-anchor="end">Explanation</text><text x="192" y="80" font-size="11" text-anchor="end">The Morlocks</text><text x="192" y="104" font-size="11" text-anchor="end">When Night Came</text><text x="192" y="128" font-size="11" text-anchor="end">Palace of Green Porcelain</text><text x="192" y="152" font-size="11" text-anchor="end">In the Darkness</text><text x="192" y="176" font-size="11" text-anchor="end">Trap of the White Sphinx</text><text x="192" y="200" font-size="11" text-anchor="end">The Further Vision</text><text x="192" y="224" font-size="11" text-anchor="end">Epilogue</text><text x="226" y="248" font-size="10" class="m" text-anchor="middle">1</text><text x="278" y="248" font-size="10" class="m" text-anchor="middle">2</text><text x="330" y="248" font-size="10" class="m" text-anchor="middle">3</text><text x="382" y="248" font-size="10" class="m" text-anchor="middle">4</text><text x="434" y="248" font-size="10" class="m" text-anchor="middle">5</text><text x="486" y="248" font-size="10" class="m" text-anchor="middle">6</text><text x="538" y="248" font-size="10" class="m" text-anchor="middle">7</text><rect x="200" y="64" width="48" height="20" rx="2" class="node bad"/><text x="224" y="78" font-size="10" text-anchor="middle" class="w">206</text><rect x="200" y="88" width="48" height="20" rx="2" class="node bad"/><text x="224" y="102" font-size="10" text-anchor="middle" class="w">206</text><rect x="252" y="88" width="48" height="20" rx="2" class="node bad"/><text x="276" y="102" font-size="10" text-anchor="middle" class="w">208</text><rect x="200" y="112" width="48" height="20" rx="2" class="node bad"/><text x="224" y="126" font-size="10" text-anchor="middle" class="w">62</text><rect x="252" y="112" width="48" height="20" rx="2" class="node bad"/><text x="276" y="126" font-size="10" text-anchor="middle" class="w">138</text><rect x="304" y="112" width="48" height="20" rx="2" class="node bad"/><text x="328" y="126" font-size="10" text-anchor="middle" class="w">204</text><rect x="200" y="136" width="48" height="20" rx="2" class="node"/><text x="224" y="150" font-size="10" text-anchor="middle" class="m">7</text><rect x="252" y="136" width="48" height="20" rx="2" class="node"/><text x="276" y="150" font-size="10" text-anchor="middle" class="m">10</text><rect x="304" y="136" width="48" height="20" rx="2" class="node bad"/><text x="328" y="150" font-size="10" text-anchor="middle" class="w">78</text><rect x="356" y="136" width="48" height="20" rx="2" class="node bad"/><text x="380" y="150" font-size="10" text-anchor="middle" class="w">79</text><rect x="200" y="160" width="48" height="20" rx="2" class="node"/><text x="224" y="174" font-size="10" text-anchor="middle" class="m">6</text><rect x="252" y="160" width="48" height="20" rx="2" class="node"/><text x="276" y="174" font-size="10" text-anchor="middle" class="m">7</text><rect x="304" y="160" width="48" height="20" rx="2" class="node bad"/><text x="328" y="174" font-size="10" text-anchor="middle" class="w">113</text><rect x="356" y="160" width="48" height="20" rx="2" class="node bad"/><text x="380" y="174" font-size="10" text-anchor="middle" class="w">152</text><rect x="408" y="160" width="48" height="20" rx="2" class="node bad"/><text x="432" y="174" font-size="10" text-anchor="middle" class="w">60</text><rect x="200" y="184" width="48" height="20" rx="2" class="node"/><text x="224" y="198" font-size="10" text-anchor="middle" class="m">7</text><rect x="252" y="184" width="48" height="20" rx="2" class="node"/><text x="276" y="198" font-size="10" text-anchor="middle" class="m">7</text><rect x="304" y="184" width="48" height="20" rx="2" class="node bad"/><text x="328" y="198" font-size="10" text-anchor="middle" class="w">39</text><rect x="356" y="184" width="48" height="20" rx="2" class="node bad"/><text x="380" y="198" font-size="10" text-anchor="middle" class="w">41</text><rect x="408" y="184" width="48" height="20" rx="2" class="node bad"/><text x="432" y="198" font-size="10" text-anchor="middle" class="w">186</text><rect x="460" y="184" width="48" height="20" rx="2" class="node bad"/><text x="484" y="198" font-size="10" text-anchor="middle" class="w">170</text><rect x="200" y="208" width="48" height="20" rx="2" class="node"/><text x="224" y="222" font-size="10" text-anchor="middle" class="m">7</text><rect x="252" y="208" width="48" height="20" rx="2" class="node"/><text x="276" y="222" font-size="10" text-anchor="middle" class="m">6</text><rect x="304" y="208" width="48" height="20" rx="2" class="node"/><text x="328" y="222" font-size="10" text-anchor="middle" class="m">10</text><rect x="356" y="208" width="48" height="20" rx="2" class="node"/><text x="380" y="222" font-size="10" text-anchor="middle" class="m">10</text><rect x="408" y="208" width="48" height="20" rx="2" class="node"/><text x="432" y="222" font-size="10" text-anchor="middle" class="m">9</text><rect x="460" y="208" width="48" height="20" rx="2" class="node"/><text x="484" y="222" font-size="10" text-anchor="middle" class="m">19</text><rect x="512" y="208" width="48" height="20" rx="2" class="node bad"/><text x="536" y="222" font-size="10" text-anchor="middle" class="w">90</text><text x="200" y="264" font-size="10" class="m">column = the chapter copied from (1 = Explanation … 7 = The Further Vision) · shaded: ≥ 25 words, flagged</text></svg>
